<mxfile host="app.diagrams.net" agent="Mozilla/5.0 (Windows NT 10.0; Win64; x64) AppleWebKit/537.36 (KHTML, like Gecko) Chrome/134.0.0.0 Safari/537.36" version="26.2.9">
  <diagram name="Página-1" id="sYy1XELMwVPvMbVAPkQ0">
    <mxGraphModel>
      <root>
        <mxCell id="0" />
        <mxCell id="1" parent="0" />
        <mxCell id="2" value="Administrador" style="whiteSpace=wrap;strokeWidth=2;" vertex="1" parent="1">
          <mxGeometry x="180" y="262" width="161" height="54" as="geometry" />
        </mxCell>
        <mxCell id="3" value="Usuarios" style="ellipse;aspect=fixed;strokeWidth=2;whiteSpace=wrap;" vertex="1" parent="1">
          <mxGeometry x="389" y="407" width="75" height="75" as="geometry" />
        </mxCell>
        <mxCell id="4" value="Parámetros del Sistema" style="whiteSpace=wrap;strokeWidth=2;" vertex="1" parent="1">
          <mxGeometry x="110" y="417" width="228" height="54" as="geometry" />
        </mxCell>
        <mxCell id="5" value="Reportes Consolidados" style="whiteSpace=wrap;strokeWidth=2;" vertex="1" parent="1">
          <mxGeometry x="8" y="717" width="220" height="54" as="geometry" />
        </mxCell>
        <mxCell id="6" value="Coordinador" style="whiteSpace=wrap;strokeWidth=2;" vertex="1" parent="1">
          <mxGeometry x="491" y="572" width="147" height="54" as="geometry" />
        </mxCell>
        <mxCell id="7" value="Desempeño Docente" style="whiteSpace=wrap;strokeWidth=2;" vertex="1" parent="1">
          <mxGeometry x="462" y="717" width="206" height="54" as="geometry" />
        </mxCell>
        <mxCell id="8" value="Observaciones Especiales" style="whiteSpace=wrap;strokeWidth=2;" vertex="1" parent="1">
          <mxGeometry x="770" y="717" width="241" height="54" as="geometry" />
        </mxCell>
        <mxCell id="9" value="Monitor" style="whiteSpace=wrap;strokeWidth=2;" vertex="1" parent="1">
          <mxGeometry x="494" y="8" width="114" height="54" as="geometry" />
        </mxCell>
        <mxCell id="10" value="Registro de Asistencia" style="whiteSpace=wrap;strokeWidth=2;" vertex="1" parent="1">
          <mxGeometry x="640" y="417" width="216" height="54" as="geometry" />
        </mxCell>
        <mxCell id="11" value="Incidencias y Observaciones" style="whiteSpace=wrap;strokeWidth=2;" vertex="1" parent="1">
          <mxGeometry x="130" y="135" width="259" height="54" as="geometry" />
        </mxCell>
        <mxCell id="12" value="Horarios Asignados" style="whiteSpace=wrap;strokeWidth=2;" vertex="1" parent="1">
          <mxGeometry x="520" y="135" width="193" height="54" as="geometry" />
        </mxCell>
        <mxCell id="13" value="Gestiona usuarios" style="curved=1;startArrow=none;endArrow=block;exitX=0.88;exitY=1;entryX=0.49;entryY=-0.01;" edge="1" parent="1" source="2" target="3">
          <mxGeometry relative="1" as="geometry">
            <Array as="points">
              <mxPoint x="426" y="361" />
            </Array>
          </mxGeometry>
        </mxCell>
        <mxCell id="14" value="Configura parámetros del sistema" style="curved=1;startArrow=none;endArrow=block;exitX=0.41;exitY=1;entryX=0.5;entryY=0;" edge="1" parent="1" source="2" target="4">
          <mxGeometry relative="1" as="geometry">
            <Array as="points">
              <mxPoint x="224" y="361" />
            </Array>
          </mxGeometry>
        </mxCell>
        <mxCell id="15" value="Genera reportes consolidados" style="curved=1;startArrow=none;endArrow=block;exitX=0.07;exitY=1;entryX=0.43;entryY=-0.01;" edge="1" parent="1" source="2" target="5">
          <mxGeometry relative="1" as="geometry">
            <Array as="points">
              <mxPoint x="75" y="361" />
              <mxPoint x="75" y="671" />
            </Array>
          </mxGeometry>
        </mxCell>
        <mxCell id="16" value="Consulta reportes" style="curved=1;startArrow=none;endArrow=block;exitX=0;exitY=0.78;entryX=0.66;entryY=-0.01;" edge="1" parent="1" source="6" target="5">
          <mxGeometry relative="1" as="geometry">
            <Array as="points">
              <mxPoint x="211" y="671" />
            </Array>
          </mxGeometry>
        </mxCell>
        <mxCell id="17" value="Supervisa desempeño docente" style="curved=1;startArrow=none;endArrow=block;exitX=0.02;exitY=1;entryX=0.16;entryY=-0.01;" edge="1" parent="1" source="6" target="7">
          <mxGeometry relative="1" as="geometry">
            <Array as="points">
              <mxPoint x="376" y="671" />
            </Array>
          </mxGeometry>
        </mxCell>
        <mxCell id="18" value="Autoriza observaciones especiales" style="curved=1;startArrow=none;endArrow=block;exitX=1;exitY=0.99;entryX=0.31;entryY=-0.01;" edge="1" parent="1" source="6" target="8">
          <mxGeometry relative="1" as="geometry">
            <Array as="points">
              <mxPoint x="766" y="671" />
            </Array>
          </mxGeometry>
        </mxCell>
        <mxCell id="19" value="Registra asistencia" style="curved=1;startArrow=none;endArrow=block;exitX=1;exitY=0.84;entryX=0.5;entryY=0;" edge="1" parent="1" source="9" target="10">
          <mxGeometry relative="1" as="geometry">
            <Array as="points">
              <mxPoint x="748" y="99" />
            </Array>
          </mxGeometry>
        </mxCell>
        <mxCell id="20" value="Reporta incidencias" style="curved=1;startArrow=none;endArrow=block;exitX=0;exitY=0.73;entryX=0.5;entryY=0;" edge="1" parent="1" source="9" target="11">
          <mxGeometry relative="1" as="geometry">
            <Array as="points">
              <mxPoint x="260" y="99" />
            </Array>
          </mxGeometry>
        </mxCell>
        <mxCell id="21" value="Consulta horarios asignados" style="curved=1;startArrow=none;endArrow=block;exitX=0.74;exitY=1;entryX=0.5;entryY=0;" edge="1" parent="1" source="9" target="12">
          <mxGeometry relative="1" as="geometry">
            <Array as="points">
              <mxPoint x="616" y="99" />
            </Array>
          </mxGeometry>
        </mxCell>
        <mxCell id="22" value="" style="curved=1;startArrow=none;endArrow=block;exitX=0.49;exitY=0.99;entryX=0.15;entryY=0;" edge="1" parent="1" source="3" target="6">
          <mxGeometry relative="1" as="geometry">
            <Array as="points">
              <mxPoint x="426" y="527" />
            </Array>
          </mxGeometry>
        </mxCell>
        <mxCell id="23" value="" style="curved=1;startArrow=none;endArrow=block;exitX=0.5;exitY=1;entryX=0.97;entryY=0;" edge="1" parent="1" source="10" target="6">
          <mxGeometry relative="1" as="geometry">
            <Array as="points">
              <mxPoint x="748" y="527" />
            </Array>
          </mxGeometry>
        </mxCell>
        <mxCell id="24" value="" style="curved=1;startArrow=none;endArrow=block;exitX=0.5;exitY=1;entryX=0.5;entryY=0;" edge="1" parent="1" source="11" target="2">
          <mxGeometry relative="1" as="geometry">
            <Array as="points" />
          </mxGeometry>
        </mxCell>
        <mxCell id="25" value="" style="curved=1;startArrow=none;endArrow=block;exitX=0.65;exitY=-0.01;entryX=0.71;entryY=1;" edge="1" parent="1" source="7" target="6">
          <mxGeometry relative="1" as="geometry">
            <Array as="points">
              <mxPoint x="649" y="671" />
            </Array>
          </mxGeometry>
        </mxCell>
        <mxCell id="26" value="" style="curved=1;startArrow=none;endArrow=block;exitX=0.5;exitY=-0.01;entryX=1;entryY=0.67;" edge="1" parent="1" source="8" target="2">
          <mxGeometry relative="1" as="geometry">
            <Array as="points">
              <mxPoint x="890" y="361" />
            </Array>
          </mxGeometry>
        </mxCell>
      </root>
    </mxGraphModel>
  </diagram>
</mxfile>
